<?xml version="1.0" encoding="UTF-8"?>
<svg id="Layer_1" xmlns="http://www.w3.org/2000/svg" xmlns:i="http://ns.adobe.com/AdobeIllustrator/10.0/" version="1.1" viewBox="0 280 595.3 260">
  <!-- Generator: Adobe Illustrator 30.3.0, SVG Export Plug-In . SVG Version: 2.1.3 Build 182)  -->
  <defs>
  <style>
    .st0 { fill: none; }
    .st1 { fill: #ed1c24; }
    .st2 { fill: #fff; }
    .st3 { fill: #eb2127; }
    .st4 { fill: #a7a9ac; }

    #rolling {
      transform-box: fill-box;
      transform-origin: center center;
      animation: rolling-roll 30s infinite ease-in-out;
    }
    @keyframes rolling-roll {
      0%   { transform: rotate(0deg); }
      5%  { transform: rotate(360deg); }
      100% { transform: rotate(360deg); }
    }
  </style>
  </defs>
  <polyline id="underline" class="st1" points="42.8 466 42.8 503.8 549.7 503.8 549.7 466"/>
  <path id="txt_black" d="M121.6,439l-39.8,10.3c-2.9-4.6-6.2-9.9-9.8-16-3.7-6.1-9.1-15.4-16.3-27.9l.7-2.4c1.3-.2,3-.8,5.1-1.7,2.1-.9,3.8-2,5-3.4,1.8-2,2.9-3.7,3.3-5.1s.6-3.1.6-4.9c0-2-.5-3.9-1.4-5.8-1-1.9-2.3-3.2-3.9-4.1-1.5-.7-2.8-1.2-4.1-1.5s-2.8-.4-4.4-.4h-2.1c0,1.2,0,4.2-.1,9,0,4.8-.1,10.8-.1,18.1,0,9.7,0,17.9.1,24.7,0,6.8.1,13.1.1,19H14.2c0-5.1,0-10.8.1-17,0-6.2.1-18.1.1-35.6,0-5.8,0-12.8-.1-21,0-8.2-.1-16.3-.1-24.5,2.7,0,6.3,0,10.8-.1s8.8-.1,12.9-.1c11.3,0,20.5.2,27.6.5s13.6,1.3,19.6,3c9.4,2.5,16,6.2,20,11.1,3.9,4.9,5.9,10.1,5.9,15.7,0,5.4-1.2,10.2-3.6,14.4-2.4,4.2-5.3,7.4-8.7,9.6v.5c2.9,4.5,5.8,9,8.7,13.4,2.7,4.3,7.5,11.7,14.2,22.2ZM210,409.1c0,5.8-1.1,11.2-3.4,16.3-2.3,5.1-5.9,9.7-10.8,13.8-4,3.4-8.7,5.8-14.1,7.4-5.4,1.6-11,2.4-16.8,2.4-5.9,0-11.5-.8-16.9-2.4s-10.1-4-14-7.3c-4.6-3.8-8.1-8.3-10.6-13.6-2.5-5.2-3.7-10.8-3.7-16.7,0-6,1.1-11.4,3.2-16.1s5.4-9,9.8-13c4.1-3.6,8.9-6.3,14.2-8.1,5.4-1.8,11.3-2.7,17.8-2.7,6.3,0,12,.8,17.3,2.5,5.3,1.6,10.1,4.3,14.4,7.9,4.5,3.8,7.9,8.2,10.2,13.1,2.2,4.9,3.4,10.4,3.4,16.5ZM173.6,409.2c0-2-.2-4.1-.7-6.3-.5-2.2-1.4-4-2.7-5.4-.6-.7-1.4-1.2-2.4-1.6s-2-.5-3.1-.5c-1.2,0-2.2.2-3.1.5-.8.3-1.7,1-2.6,2.1-1.1,1.3-1.9,3-2.4,5.1-.5,2.2-.7,4.1-.7,5.9,0,2.2.2,4.3.7,6.3.4,1.9,1.3,3.6,2.6,5.1.7.9,1.6,1.5,2.6,1.9s2,.5,3.1.5c1,0,2-.2,3.1-.7,1.1-.4,1.9-1,2.5-1.7,1-1.2,1.8-2.8,2.4-4.9.4-2.1.7-4.2.7-6.3ZM256.1,446.7h-36.9c0-7.1,0-14.4.1-21.9,0-7.4.1-18.9.1-34.2,0-7.9,0-16.3-.1-25.1,0-8.8-.1-17.5-.1-26.2h36.9c0,9,0,17.3-.1,25,0,7.7-.1,16.1-.1,25.3,0,10,0,18.9.1,26.7s.1,17.9.1,30.4ZM303,447.9l-36.8-2.5c.5-7.1,1-14.4,1.6-21.8s1.4-18.8,2.4-34.2c.5-7.9,1.1-16.2,1.6-25,.6-8.8,1.1-17.5,1.7-26.2l36.8,2.5c-.6,9-1.2,17.3-1.8,24.9-.6,7.6-1.2,16-1.8,25.2-.7,10-1.3,18.9-1.8,26.6-.4,7.9-1,18-1.9,30.5ZM435,416.7c0,5.9-1.7,10.8-5.1,14.8s-8,7.4-13.9,10.1c-5,2.3-11.6,4-19.9,5.1-8.2,1.1-15.8,1.6-22.9,1.6-6.5,0-11.8-.1-15.8-.2s-7-.3-9-.4l-4.4-31.7c.5,0,3.2.1,8.1.3,4.9.1,8,.2,9.6.2h6.7c2.5,0,5-.1,7.4-.2,3.3-.2,5.3-.7,6.2-1.4.9-.7,1.3-1.5,1.3-2.4,0-1.1-.6-2-1.7-2.6-1.1-.7-3.2-1.6-6.3-2.8-1.7-.6-4.1-1.6-7.4-3s-5.9-2.7-7.8-3.8c-4.5-2.7-7.7-5.9-9.7-9.6-2-3.6-3-7.7-3-12.1,0-2.8.5-5.5,1.5-8.1s2.4-4.8,4.2-6.7c4.8-5.1,12-9.1,21.4-12s21-4.4,34.7-4.4c6,0,10.5,0,13.6.1s5.2.2,6.5.3l4.4,31.7c-2.2-.1-4.4-.2-6.4-.3-2-.1-4.6-.1-7.6-.1-2.7,0-5.1,0-7.1.1s-4.3.2-6.7.3c-2.3.1-4.1.5-5.2,1s-1.7,1.3-1.7,2.2c0,1.1.6,2.1,1.9,2.8,1.3.7,3.3,1.6,6,2.7,2.6,1,5.2,2.1,7.8,3.1,2.6,1.1,5.2,2.3,7.7,3.8,4.3,2.6,7.5,5.6,9.6,9.2,2,3.6,3,7.7,3,12.4ZM580.1,441.4l-38.5,7.3-8.6-44.8h-.7c-.6,1.8-1.8,5.6-3.5,11.4-1.8,5.8-3.9,13-6.4,21.8h-29c-2.8-10.1-5.1-17.6-6.7-22.5s-2.8-8.4-3.5-10.6h-.7c-.8,3.8-2,10-3.6,18.6s-3.2,17.4-4.7,26.3l-37.6-7.3c5.5-25.2,9.7-45.6,12.6-61.2,3-15.5,4.9-25.4,5.8-29.7l39.1-3.4c.9,2.9,2.6,8.7,5.1,17.3,2.5,8.6,5.4,18.2,8.6,28.9h.7c2.9-8.7,6.1-18.1,9.4-28.4,3.3-10.2,5.3-16.1,5.9-17.8l41,3.4c.4,2.5,1.9,11.5,4.3,27,2.5,15.3,6.2,36.6,11,63.7Z"/>
  <g id="rolling">
    <path class="st3" d="M118.5,406h91.6c-1-24.4-21.1-43.9-45.8-43.9s-44.8,19.4-45.8,43.9Z"/>
    <g>
      <path class="st2" d="M199,391.5s4.1,4.1,10.1,14.2c-2.1,6.5-8.8,34.9-15.2,35-2.9.7-25.3,1.4-24.2-1,.8-2.4-9.4-16.4-12.3-18.8-1.2-.5-1-1.8-1-1.8,0,0-5.6-.6-6.7-1.5-1.2-1-9.8-2.4-14.1,1.4-.9.8-2.7,3.9-3.2,4.5-.4.5-7.2-1.7-6.2.4.7,1.5-7.1.6-7.1.6-6.3-11.3,2.6-20.5,3-20.6s2.3-.9,2.9-3.8c.6-2.8,2.9-4.9,6.8-9.6,3.8-4.7,13-8.2,16.5-9.2,12-3.3,8.1-7.2,22.9-11.7,2.3-.7,7.5,2.9,9.1,4.2,3.5,2.4-2.1,12.6-2.5,13.8l-4.1,5.4"/>
      <path class="st4" d="M206.4,421.3c-1.3,4.6-5.7,24.1-13.4,21.7l1.4.1c-4.7.1-27.8,3.5-27.1-3.8-2.6-6.1-6.9-11.6-11.2-16.6.4-.5.9-1.1,1.2-1.7.2-.4-1.4,3.6-.8,1.9-1.7-.6-2.6-2.5-2.4-4.2l2,2.6c-2.6-.4-5.5-.5-7.9-2-.2.2,1.6-2,.8-1-.3.3-.6.7-.7,1.1h0c-3.6-1.1-8.4-1.2-11.5,1.1-1.4,1.3-2.2,3.7-3.8,4.8-1.9.7-4.3-.5-6.2-.4-.1-.4-.3-1.2-.5-1.4h0c.4.1.8-.1,1.1-.3,0,0,.5-.2.3-.1,1.4,4.3-5,3.5-7.5,3.3-.9-.2-2.5.2-2.7-.9-4.3-7.2-2.6-17.2,3.7-22.7,2.7-.8,2.6-5.8,5.8-8.6,9-13.5,22.5-11,33.2-20.4,3.4-2.3,7.2-3.8,11.1-4.8,3.1.1,9.3,3.5,10.2,6.5.1,6.7-3.8,12.7-7.9,17.7,3.8-4.6,7.3-9.9,7.8-16.1,1.3-3.7-7.4-7.9-10.3-7.6-3.8,1.3-7.5,2.8-10.7,5.2-3,2.6-6.2,5.3-10.1,6.5-6.9,2.3-14.4,5.1-18.8,11.3-2,2.7-4.7,5.2-5.3,8.4-.5,2.2-1.9,3.5-3.8,4.7-4,4.7-5.4,11.7-2.5,17.3,1.7.2,3.5.4,5.1.1.1.4.3.9.7,1.1-.1,0-.2,0-.3.1.8-.4-1.1.5-.9.4-1.5-4.2,4.2-3.1,6.6-2.6,4.1-7,12-8.7,19.2-5.6,0,0-.4.5-.2.2.1-.1.2-.2.2-.2,1.8.7,4.3.9,6,1.1l1.4,1.8h0c.6.1-.8-.1-.7-.1.2,0,.5,0,.7.1,0,.1.1.1.1,0-.1-.1-.5,0-.7-.1-.7-.1.9.1.7.1h0l-1.5-1.9c-.4,0-1-.1-1.8-.2.6.1,1.2.2,1.8.2l1.5,1.9h0c-.3,0,.8.1-.8-.1.2,0,.6.1.8.1v.1c-.3.2-.1.1,0-.1h0c5.3,4.4,11.9,12.5,14.1,19.1h0c7.2,1.2,15.1.8,22.5.6h-.1c-.9,2.8-.3.8-.5,1.4.2-.5.3-1,.2-1.5.1,0,.4-.2.5-.3.4.5.1.1.2.2,0,0,0-.1-.1-.1-.2-.3-.1-.2-.1-.2,6.3-10,9.9-21.2,13.5-32.4-1.4-3.8-4.2-7.2-6.5-10.6,1,1.2,2,2.4,2,2.4-1.7-2.7-2.6-4-4.6-6.5,4.2,4,7.9,9.2,11.1,14.2-.9,5.2-2.2,10.6-3.6,15.7Z"/>
    </g>
    <g>
      <g id="stringer">
        <line class="st0" x1="159" y1="422.1" x2="193.9" y2="440.4"/>
      </g>
      <path class="st4" d="M164.2,422.8c11.1,3.3,19.5,12.2,29.8,17.3-4.8-3-10.5-3-15.5-5.8-4.8-3.1-7.2-3.9-6-3.2-3.1-.3-4.6-1.5-6.8-3.4-2.5-.9-3.5-3.5-6.3-4.9h.5c-.3-.4-.5-.5-.9-.9,1.6.1,3.5.6,5.2.9Z"/>
    </g>
    <g>
      <g id="stringer1" data-name="stringer">
        <path class="st2" d="M188.1,423.7s13.2,2,19.2-20.1"/>
      </g>
      <path class="st4" d="M191.4,421.6c7.1-4.2,13.4-9.6,15.6-18.1-1.6,4-.5,8.9-3.1,12.5-1.2,1.5-4.3,4.7-3.6,4.3-1,2.5-2.6,3.3-5.1,3.8-1.9,1.3-4.4,0-6.5,0l.4-.2c-.4-.2-.6-.2-.9-.4,1-.5,2.3-1.1,3.2-1.9Z"/>
    </g>
    <g>
      <g id="huva">
        <path class="st2" d="M120.5,424.6c-19.2.9-12.8-23.2,5.3-16.2,0,0,7.7,3.4,6.3,4.4-1.3.9-17.2,5.6-11.6,11.8Z"/>
      </g>
      <path class="st4" d="M111.6,424.6c-7.5-2.3-5.9-14.1-.3-17.7,5.9-4,18.9-.8,22.1,5.4-.8,3.1-18,5.1-12.6,12-5.7-6.9,14-11.6,7.6-12.9-4.1-1.9-9.3-3.9-13.6-1.9-.2.1,0,.1.4-.1-6.4,4.9-5.1,14.7,4.2,14.7l-.8.2c.8.2,1.2.3,2,.4-2.7.9-6.1,1-9-.1Z"/>
    </g>
    <g>
      <path class="st2" d="M199,391.5s-8.2-.7-25.8,1.5"/>
      <path class="st4" d="M195.8,393.2c-.3.2-.8.7-1.2.6-7.2.4-14.1-1.3-21.3-.6,3.8,0,6.7-3,10.5-3.1,3.8.3,5.4-.3,4.5-.2,2.1-1.3,2.7-1,5.1-.4,1.8-.4,3.2,1.4,5.2,1.5-.2.1-.3.2-.3.2.3.2.5.3.8.4-1,.6-2.2,1-3.3,1.6Z"/>
    </g>
    <g>
      <g id="paddel">
        <path class="st2" d="M115.2,426.4c33.8-16.6,74.7-43.5,112.1-61.2.2.2-.9,1.9-.9,1.9-9,5.2-43.8,27.1-54,30.7l-52.1,28.6h-5.1Z"/>
      </g>
      <path class="st4" d="M157.9,402.3c25.5-15,39-25.3,64.7-39.9,2.3-1.1,5.1-3.1,7.7-1.7,1.9,1.3.5,3.6-.5,5-29.7,18.2-60.2,32.9-90.8,49.6-5.1,2.8-11.3,5.8-16.6,8.7-1.6,0,3-1.6,7.3-3.9,32.4-19.3,66.8-37.3,98.2-57.8.4.1.9.3,1.4.3.1-.1-.1.1-.1.1-.3.3-.3.8-.4,1.2-5,1.3-10.2,5.3-14.5,7.5-6.6,3.8-.6.1-4.2,2.6-24.6,17.4,24.9-10.2-52.2,28.3Z"/>
    </g>
    <g>
      <g id="näve">
        <path class="st2" d="M162.9,405.3c-1.2.1-1-.6-2.2-1.7-4-3.8-3.6-5.4-.4-8.3,1.1.4.4-1.7,1.7-1.8.5,0,1.4.4,1.6,0,.2-.4,1.1-1.2,1.6-.5s.3-.9,2.2-.3c2,.7.1,2.7.3,3.2s2.1,1.8,2,2.3c-1.1,2.3-3.6-1.1-4.7-2.6-.8-1,3.5,4.3,1.9,4.6,0,0-2.4,1-4.2-3.4,0,0,2.8,3.9,2.2,4.4-.6.6-3.5.8-4.8-3.9,0,0,.9,3.7,2.5,4.9,0,0,2.9-1,2,.4-.4.7-1.7,2.7-1.7,2.7Z"/>
      </g>
      <path class="st4" d="M155.9,398.4c.1-3.3,3.5-5.5,5.7-7.5l-.6,2.1c-.3.8.5-1.9-.6,1.9,0-.1.1-.3.1-.4-.1.8.3.5-.5.5.3,0-3,.1-1.6,0-.1-2.5,2.3-4.6,4.8-3.7-.1.6-.2,1.7,0,2.2,1.7.9-2.3-1.3-1.9-1.1,1.1-2.1,4.3-2.9,5.8-.7.7-.5-.9.7-.8.6-.4.2-.8.5-1,.9,2.1-4,.5-1.2,1-2.1-.2-.2-.6-.5-.8-.7,3.7-.9,6.1,2.8,4.6,5.6,2.7-.2,2.6,7.4-3.7,4.2-1-1.5-2.2-3.6-3.2-5.1,0-.3.2-.6.2-.9.1-.2,1-.6.6-.4,2.8,0,5,3.8,4.4,6.3,0,1.8-1.8,2.2-3.3,1.7-1.9-.6-3.2-2.6-3.8-4.5l2.2-1.2c.7,1.6,3.1,4.2,1.8,5.9-3.1,1.8-5.5-1.9-5.9-4.5l1.2-.3c.4,1.4.9,4,2.3,4.6,4.2-1,1.2,2.1.1,3.7,1.2-1.7,4.1-5-.4-3.5-1.5-1-2.2-2.9-2.9-4.6l.6-.1c.6,1.5,2,4,3.8,3.3.1.1.2.3.3.4.5.5.1.1.2.2-.2-.1-.6-.1-.8-.1-.7-1.2-1.6-2.2-2.5-3.3l2.8-1.5c1,1.6,2.5,1.5.8-.4.2-.1.1-.1.1-.1.4.5,1.3,2,1.8,1.1,0-.2-.1-.3-.2-.3v.2c-.1-.4-.8-.6-1.2-.8,0,0-.1-.2-.1-.3-.1-.1-.3,0-.2,0v-.1c-.8-.2-1.5-.4-1.9-1.1.2-.2,1.3-.8,1.4-1.1-.1.5.3,1.1.6,1.4-.3-.3-.7-.6-1.1-.9-.3-.1,2.3,1.3,1.2.7-.6,1.2-2.4,1.4-3.4.9v-1.3c0,.2.5.7.7.8.1,0-.1,0-.2,0h-.2c-.7,0,.9,0,.7,0,.2,1.7-1.8,3-3.2,2.3l1.8-.4c-5,2.7-1.6,4.6.6,7.8-.2-.2-.6-.5-.8-.6.5.7.4,1.3,1.5,1.4-.5.1-1.4.3-1.5-.5.2,0-.4,0,.4,0-.1,0-.3.1-.4.1-2.1-1.7-5.6-3.4-5.4-6.7Z"/>
    </g>
    <g>
      <path class="st2" d="M156.4,418.9c1.1,0,36.4-6.6,42.7-27.6"/>
      <path class="st4" d="M162.4,415.7c13.1-6.2,31-8.8,36.4-24.5-5.2,14.4-9.9,17-21,22.6-5.8,4.9-13.2,4.5-20.3,5.3.3-.2.6-.3.6-.3-.6,0-1,0-1.6-.1,1.7-.9,4-1.9,5.9-3Z"/>
    </g>
    <g>
      <path class="st2" d="M173.6,392.7s-1.5-3.2-8.9-.3c0,0-.2-2.4,1.2-4.3s.5-11.6,5.9-13.1"/>
      <path class="st4" d="M170.3,393c-.4.3-.8.8-1.4.7-2.2.4-4.3,1.3-6.5,2-.2-3-.3-6.4,1.8-8.9,2-4.1,2.2-10.7,7.4-12.2-5.6,1.7-1.5,8.6-4.5,14.5.1.3.9-.2,1.1-.4.1-.1,0,0,0,.1-.1.2-.2.4,0,.6,1.3-.5,4.5,1.4,5.5,2.5-.2-.1-.4-.1-.4-.1.2.4.3.6.3.9-1.2-.4-2.4-.2-3.3.3Z"/>
    </g>
    <g>
      <g id="sarg">
        <path class="st2" d="M177.7,402.2s6.7-4.9,15.1-7.8c1.8-.6,2.7-2.5-.1-3"/>
      </g>
      <path class="st4" d="M179,399.1c1.6-5.1,20.1-5.1,13.7-7.5,4.4,1-.6,4.3-2.2,5.5-1.3.6-3.4,1.1-4,1.5-.5.3-.6.5-.3.3-1.2,2-1.3,1.7-3.5,2.2-.9,1-3,.1-4.4,1.1,0-.2.1-.3.1-.3-.3,0-.5,0-.8.1.3-.9.9-1.9,1.4-2.9Z"/>
    </g>
  </g>
</svg>